<svg width="16" height="19" viewBox="0 0 16 19" fill="none" xmlns="http://www.w3.org/2000/svg">
<path fill-rule="evenodd" clip-rule="evenodd" d="M7.37116 1.45C5.68669 1.45 4.32116 2.81554 4.32116 4.5V5.10689H11.6885V4.5C11.6885 2.81554 10.323 1.45 8.63849 1.45H7.37116ZM12.5885 5.10689V4.5C12.5885 2.31848 10.82 0.550003 8.63849 0.550003H7.37116C5.18964 0.550003 3.42116 2.31848 3.42116 4.5V5.10689H3.00005C1.64695 5.10689 0.550049 6.20379 0.550049 7.55689V16C0.550049 17.3531 1.64695 18.45 3.00005 18.45H12.9911C14.3425 18.45 15.4387 17.3558 15.4411 16.0044L15.456 7.56124C15.4585 6.20644 14.3608 5.10689 13.0061 5.10689H12.5885ZM3.00005 6.00689C2.14401 6.00689 1.45005 6.70085 1.45005 7.55689V16C1.45005 16.856 2.14401 17.55 3.00005 17.55H12.9911C13.846 17.55 14.5396 16.8577 14.5411 16.0028L14.5561 7.55964C14.5576 6.70253 13.8632 6.00689 13.0061 6.00689H3.00005Z" fill="black"/>
</svg>
