<?xml version="1.0" encoding="UTF-8" standalone="no"?>
<!-- Created with Inkscape (http://www.inkscape.org/) -->

<svg
   version="1.1"
   id="svg1"
   width="533.33331"
   height="218.33333"
   viewBox="0 0 533.33331 218.33333"
   xmlns="http://www.w3.org/2000/svg"
   xmlns:svg="http://www.w3.org/2000/svg">
  <defs
     id="defs1" />
  <g
     id="g1">
    <path
       style="fill:#000000"
       d="M 216.49999,218.13607 C 193.0985,215.83982 175.61873,208.09014 161.3159,193.67014 155.41002,187.71587 150.69829,180.97016 146.87828,173 c -9.03925,-18.85971 -11.04106,-42.99484 -5.3604,-64.62831 6.49604,-24.738637 23.668,-44.357643 46.81545,-53.486759 10.34972,-4.081823 19.70262,-5.928151 32.33333,-6.382825 21.42931,-0.771401 41.45691,4.97105 56.81653,16.290832 13.37028,9.853668 22.83757,22.92823 28.02776,38.707062 7.29853,22.18842 5.92497,49.68881 -3.46193,69.31215 -4.88479,10.21167 -11.6929,19.03338 -20.13157,26.08576 -7.5831,6.33736 -18.59628,12.26365 -28.27854,15.21692 -9.52195,2.90437 -16.23494,3.89802 -27.30559,4.04173 -4.675,0.0607 -9.09999,0.0515 -9.83333,-0.0205 z m 25.06626,-6.31397 c 21.75431,-2.82718 36.80878,-15.70538 43.26728,-37.01256 4.3715,-14.42199 4.0752,-33.09028 -0.83024,-52.30954 -8.26544,-32.383515 -28.0289,-57.048012 -52.46216,-65.471968 -5.61927,-1.93738 -9.56397,-2.69465 -15.2078,-2.919469 -9.3464,-0.372308 -17.75429,1.523053 -26.35229,5.940499 -15.40404,7.914234 -25.38904,23.567893 -28.1751,44.170598 -0.69086,5.10882 -0.78659,16.32808 -0.18869,22.11367 3.8507,37.26167 24.20035,69.33976 51.46534,81.12717 9.87668,4.26997 18.7425,5.62756 28.48366,4.3616 z M 2.9999999,217.27359 c 0,-0.5584 79.4037611,-148.326372 80.8993871,-150.551281 6.890772,-10.250787 20.007023,-17.346301 31.397843,-16.985324 l 3.0403,0.09635 -39.360111,73.499995 c -21.64806,40.425 -40.017674,74.55 -40.821366,75.83333 -5.194778,8.29502 -13.957556,14.56232 -24.02232,17.18122 -2.377771,0.6187 -11.1337331,1.34672 -11.1337331,0.92571 z M 103.94745,216.88805 c -3.63753,-1.02159 -7.706403,-4.4663 -9.425177,-7.97935 -2.227747,-4.55335 -2.234992,-9.59995 -0.02027,-14.12307 4.713883,-9.62716 16.978217,-11.71248 24.498097,-4.16543 7.697,7.7248 5.53596,20.43573 -4.30308,25.31006 -2.28914,1.13406 -2.71549,1.22971 -5.83333,1.30865 -2.02256,0.0512 -3.98271,-0.0887 -4.91624,-0.35086 z m 235.13113,-79.42207 c 0.0827,-74.452225 0.12344,-79.377517 0.66668,-80.578714 0.93051,-2.057507 2.41129,-3.68387 4.31354,-4.737614 l 1.77452,-0.982987 29.5,-0.10153 c 20.00946,-0.06887 30.73323,0.01855 33.33333,0.271731 18.05423,1.757983 30.45535,8.897638 35.98114,20.715292 1.99897,4.275083 2.75402,7.657848 2.9412,13.177213 0.1821,5.369793 -0.22772,8.923625 -1.49101,12.929408 -2.88812,9.157961 -9.25455,15.966451 -19.45994,20.811131 -6.04214,2.86832 -13.91933,5.24261 -21.63806,6.52202 -5.56615,0.92261 -5.52533,0.88009 -1.5,1.56237 14.27253,2.41916 23.35555,7.94381 30.32638,18.4457 2.06616,3.11276 1.49993,2.08327 18.87411,34.31556 12.30347,22.82521 13.65105,25.17964 15.60728,27.26844 5.73498,6.12363 15.14258,7.27332 22.25999,2.72037 3.3106,-2.11777 5.77764,-4.75688 7.40498,-8.7231 0,0 0.49693,-1.28543 0.52726,-1.91461 C 498.91639,190.52805 498.67811,146 498.67811,146 c 0.19764,-58.991533 -4.5e-4,-54.231923 2.45019,-58.870833 2.61258,-4.945441 7.77462,-9.722904 13.7739,-12.747723 1.98511,-1.000886 6.66101,-2.714779 7.40655,-2.714779 0.49297,0 0.50352,114.022805 0.0109,117.951415 -1.54253,12.30193 -9.94328,22.11566 -22.22357,25.96152 0,0 -2.62355,0.91742 -4.92944,0.91742 -1.76153,0 -17.33333,3.7e-4 -17.33333,3.7e-4 -19.07375,3.6e-4 -19.82055,-0.22383 -22,-0.75381 -6.53785,-1.84902 -12.1456,-5.54371 -16.24617,-10.70384 -1.62459,-2.04438 -4.08749,-6.71015 -13.81974,-26.18041 -15.99651,-32.00248 -17.60344,-34.84346 -22.83344,-40.36859 -4.57427,-4.8324 -8.77949,-7.35177 -15.10349,-9.04859 -3.21249,-0.86196 -3.70547,-0.89843 -13.91383,-1.02947 l -10.58333,-0.13584 -0.0382,15.11158 c -0.021,8.31137 -0.14629,23.81158 -0.27838,34.44491 -0.20748,16.70285 -0.31718,19.60214 -0.80624,21.309 -2.72297,9.50325 -11.1653,16.60396 -20.69933,17.40988 l -2.52064,0.21308 z m 38.25474,-12.66713 c 19.07511,-1.92589 33.91469,-8.57617 40.83247,-18.29885 4.46062,-6.26923 6.52909,-13.948475 6.04415,-22.439088 -0.77011,-13.483766 -5.5761,-21.97543 -15.04329,-26.579879 -7.00124,-3.405111 -10.44529,-3.883437 -27,-3.749886 -11.48179,0.09263 -12.78139,0.159261 -13.89315,0.712339 -1.64091,0.816328 -3.44874,2.615476 -4.34614,4.325275 -1.01226,1.928642 -1.05236,3.945822 -0.75905,38.185921 l 0.2466,28.788018 4.54254,-0.22793 c 2.49839,-0.12536 6.71754,-0.44753 9.37587,-0.71592 z M 1.7389316,82.813097 C 0.03419505,81.619053 -5.4327369e-4,81.313856 0.00732067,67.599885 0.0140383,55.884964 0.06549188,54.7235 0.63195447,53.499999 1.350467,51.948085 2.7709631,50.525252 4.1050331,50.021205 4.7107072,49.792365 9.7468463,49.666666 18.309578,49.666666 h 13.266178 l 0.878788,0.878787 c 0.669804,0.669804 0.878788,1.210875 0.878788,2.275229 0,1.682116 -0.379377,2.071444 -4.333333,4.44699 -9.564005,5.746078 -14.974162,11.520444 -20.3027351,21.669503 -1.9588728,3.730964 -2.7063365,4.396156 -4.9398753,4.396156 -0.7016448,0 -1.6099505,-0.234105 -2.018457,-0.520234 z M 508.50066,45.249999 c -0.29174,-0.4125 -1.38624,-2.055964 -2.43223,-3.652143 -3.95444,-6.034519 -8.43579,-10.440501 -15.01706,-14.764523 -3.6413,-2.392406 -4.02728,-2.889256 -3.59195,-4.623748 0.1115,-0.444239 1.03377,-1.221239 2.39409,-2.016994 5.95182,-3.481669 11.93641,-9.214312 15.78074,-15.1163869 C 508.53049,0.62969562 509.09273,0 510.16665,0 c 1.06595,0 1.72838,0.71502602 4.16898,4.4999999 3.75568,5.8244501 8.80566,10.8491321 14.49768,14.4250521 3.3809,2.123993 4.5,3.159051 4.5,4.162034 0,1.051795 -0.5005,1.499324 -4.83333,4.321752 -5.06907,3.302019 -10.54504,8.778463 -13.75663,13.757828 -1.30071,2.016666 -2.60008,3.929166 -2.88748,4.25 -0.77339,0.863343 -2.69421,0.767928 -3.35521,-0.166667 z"
       id="path1" />
  </g>
</svg>
